<svg width="24" height="24" viewBox="0 0 24 24" fill="none" xmlns="http://www.w3.org/2000/svg">
<path d="M24 12C24 18.6274 18.6274 24 12 24C5.37258 24 0 18.6274 0 12C0 5.37258 5.37258 0 12 0C18.6274 0 24 5.37258 24 12ZM2.55761 12C2.55761 17.2149 6.78511 21.4424 12 21.4424C17.2149 21.4424 21.4424 17.2149 21.4424 12C21.4424 6.78511 17.2149 2.55761 12 2.55761C6.78511 2.55761 2.55761 6.78511 2.55761 12Z" fill="black"/>
<path d="M19.2 12C19.2 15.9765 15.9765 19.2 12 19.2C8.02355 19.2 4.8 15.9765 4.8 12C4.8 8.02355 8.02355 4.8 12 4.8C15.9765 4.8 19.2 8.02355 19.2 12Z" fill="black"/>
</svg>
